<?xml version="1.0" standalone="no"?>
<!DOCTYPE svg PUBLIC "-//W3C//DTD SVG 20010904//EN"
 "http://www.w3.org/TR/2001/REC-SVG-20010904/DTD/svg10.dtd">
<svg version="1.0" xmlns="http://www.w3.org/2000/svg"
 width="64.000000pt" height="64.000000pt" viewBox="0 0 64.000000 64.000000"
 preserveAspectRatio="xMidYMid meet">
<metadata>
Created by potrace 1.15, written by Peter Selinger 2001-2017
</metadata>
<g transform="translate(0.000000,64.000000) scale(0.100000,-0.100000)"
fill="#000000" stroke="none">
<path d="M215 587 c-47 -49 -75 -99 -75 -134 0 -18 -4 -33 -10 -33 -17 0 -12
-126 6 -141 8 -7 24 -29 34 -49 11 -21 31 -52 46 -69 14 -18 25 -33 23 -35 -2
-1 -26 -12 -54 -23 -73 -29 -71 -48 6 -57 79 -8 179 -8 258 0 77 9 79 28 6 57
-27 11 -51 22 -53 23 -2 1 13 23 32 49 20 25 36 50 36 55 0 5 11 22 24 37 33
39 45 122 22 146 -9 8 -16 28 -16 44 0 35 -30 85 -77 129 -34 32 -39 34 -107
33 -66 -1 -73 -4 -101 -32z m157 -44 c3 -53 28 -74 28 -24 0 22 4 29 15 25 18
-7 55 -83 55 -112 0 -21 -3 -22 -115 -22 -96 0 -115 -3 -115 -15 0 -13 21 -15
125 -15 77 0 125 -4 125 -10 0 -6 -63 -10 -170 -10 -141 0 -170 2 -170 14 0 8
4 17 9 20 5 3 12 26 15 51 4 27 18 58 34 77 l27 32 5 -30 c8 -45 25 -34 28 19
l3 47 49 0 49 0 3 -47z m118 -223 c0 -5 -6 -13 -14 -17 -8 -4 -27 -33 -43 -63
-29 -54 -80 -100 -113 -100 -33 0 -84 46 -113 100 -16 30 -35 59 -43 63 -38
21 -4 27 156 27 101 0 170 -4 170 -10z"/>
</g>
</svg>
